<mxfile host="app.diagrams.net" agent="Mozilla/5.0 (Windows NT 10.0; Win64; x64) AppleWebKit/537.36 (KHTML, like Gecko) Chrome/109.0.0.0 Safari/537.36" version="24.7.12">
  <diagram id="C5RBs43oDa-KdzZeNtuy" name="Page-1">
    <mxGraphModel dx="880" dy="502" grid="1" gridSize="10" guides="1" tooltips="1" connect="1" arrows="1" fold="1" page="1" pageScale="1" pageWidth="827" pageHeight="1169" math="0" shadow="0">
      <root>
        <mxCell id="WIyWlLk6GJQsqaUBKTNV-0" />
        <mxCell id="WIyWlLk6GJQsqaUBKTNV-1" parent="WIyWlLk6GJQsqaUBKTNV-0" />
        <mxCell id="QxKMZ2NqWe3CWpzE17wM-162" value="" style="endArrow=none;html=1;rounded=0;fontSize=12;startSize=8;endSize=8;curved=1;exitX=0.5;exitY=1;exitDx=0;exitDy=0;entryX=0.5;entryY=0;entryDx=0;entryDy=0;" edge="1" parent="WIyWlLk6GJQsqaUBKTNV-1" source="QxKMZ2NqWe3CWpzE17wM-148" target="QxKMZ2NqWe3CWpzE17wM-156">
          <mxGeometry relative="1" as="geometry">
            <mxPoint x="170" y="660" as="sourcePoint" />
            <mxPoint x="330" y="660" as="targetPoint" />
          </mxGeometry>
        </mxCell>
        <mxCell id="QxKMZ2NqWe3CWpzE17wM-4" value="Name" style="rounded=0;whiteSpace=wrap;html=1;" vertex="1" parent="WIyWlLk6GJQsqaUBKTNV-1">
          <mxGeometry x="170" y="150" width="120" height="60" as="geometry" />
        </mxCell>
        <mxCell id="QxKMZ2NqWe3CWpzE17wM-79" value="" style="edgeStyle=none;curved=0;rounded=0;orthogonalLoop=1;jettySize=auto;html=1;fontSize=12;endArrow=dash;endFill=0;" edge="1" parent="WIyWlLk6GJQsqaUBKTNV-1" source="QxKMZ2NqWe3CWpzE17wM-4">
          <mxGeometry relative="1" as="geometry">
            <mxPoint x="230" y="140" as="sourcePoint" />
            <mxPoint x="610" y="210" as="targetPoint" />
            <Array as="points">
              <mxPoint x="230" y="120" />
              <mxPoint x="330" y="120" />
              <mxPoint x="430" y="120" />
              <mxPoint x="610" y="120" />
            </Array>
          </mxGeometry>
        </mxCell>
        <mxCell id="QxKMZ2NqWe3CWpzE17wM-5" value="Phone" style="rounded=0;whiteSpace=wrap;html=1;" vertex="1" parent="WIyWlLk6GJQsqaUBKTNV-1">
          <mxGeometry x="354" y="150" width="126" height="60" as="geometry" />
        </mxCell>
        <mxCell id="QxKMZ2NqWe3CWpzE17wM-6" value="Birthday" style="rounded=0;whiteSpace=wrap;html=1;" vertex="1" parent="WIyWlLk6GJQsqaUBKTNV-1">
          <mxGeometry x="550" y="150" width="130" height="60" as="geometry" />
        </mxCell>
        <mxCell id="QxKMZ2NqWe3CWpzE17wM-62" value="&lt;sub&gt; +validate_phone(phone: str): bool &lt;/sub&gt;" style="whiteSpace=wrap;html=1;align=left;" vertex="1" parent="WIyWlLk6GJQsqaUBKTNV-1">
          <mxGeometry x="354" y="210" width="126" height="40" as="geometry" />
        </mxCell>
        <mxCell id="QxKMZ2NqWe3CWpzE17wM-63" style="edgeStyle=none;curved=1;rounded=0;orthogonalLoop=1;jettySize=auto;html=1;exitX=1;exitY=0.5;exitDx=0;exitDy=0;fontSize=12;startSize=8;endSize=8;" edge="1" parent="WIyWlLk6GJQsqaUBKTNV-1" source="QxKMZ2NqWe3CWpzE17wM-5" target="QxKMZ2NqWe3CWpzE17wM-5">
          <mxGeometry relative="1" as="geometry" />
        </mxCell>
        <mxCell id="QxKMZ2NqWe3CWpzE17wM-64" value="&lt;sub&gt;+_validate(date_str: str): bool&lt;/sub&gt;" style="whiteSpace=wrap;html=1;align=left;" vertex="1" parent="WIyWlLk6GJQsqaUBKTNV-1">
          <mxGeometry x="550" y="210" width="130" height="40" as="geometry" />
        </mxCell>
        <mxCell id="QxKMZ2NqWe3CWpzE17wM-66" value="Field" style="swimlane;fontStyle=0;childLayout=stackLayout;horizontal=1;startSize=26;horizontalStack=0;resizeParent=1;resizeParentMax=0;resizeLast=0;collapsible=1;marginBottom=0;align=center;fontSize=14;" vertex="1" parent="WIyWlLk6GJQsqaUBKTNV-1">
          <mxGeometry x="334" y="10" width="160" height="86" as="geometry" />
        </mxCell>
        <mxCell id="QxKMZ2NqWe3CWpzE17wM-67" value="+value: str  " style="text;strokeColor=none;fillColor=none;spacingLeft=4;spacingRight=4;overflow=hidden;rotatable=0;points=[[0,0.5],[1,0.5]];portConstraint=eastwest;fontSize=12;whiteSpace=wrap;html=1;" vertex="1" parent="QxKMZ2NqWe3CWpzE17wM-66">
          <mxGeometry y="26" width="160" height="30" as="geometry" />
        </mxCell>
        <mxCell id="QxKMZ2NqWe3CWpzE17wM-74" value="" style="endArrow=none;html=1;rounded=0;fontSize=12;startSize=8;endSize=8;curved=1;" edge="1" parent="QxKMZ2NqWe3CWpzE17wM-66">
          <mxGeometry relative="1" as="geometry">
            <mxPoint y="55" as="sourcePoint" />
            <mxPoint x="160" y="55" as="targetPoint" />
          </mxGeometry>
        </mxCell>
        <mxCell id="QxKMZ2NqWe3CWpzE17wM-68" value="+__str__(): str" style="text;strokeColor=none;fillColor=none;spacingLeft=4;spacingRight=4;overflow=hidden;rotatable=0;points=[[0,0.5],[1,0.5]];portConstraint=eastwest;fontSize=12;whiteSpace=wrap;html=1;" vertex="1" parent="QxKMZ2NqWe3CWpzE17wM-66">
          <mxGeometry y="56" width="160" height="30" as="geometry" />
        </mxCell>
        <mxCell id="QxKMZ2NqWe3CWpzE17wM-75" style="edgeStyle=none;curved=1;rounded=0;orthogonalLoop=1;jettySize=auto;html=1;exitX=0.5;exitY=1;exitDx=0;exitDy=0;fontSize=12;startSize=8;endSize=8;" edge="1" parent="WIyWlLk6GJQsqaUBKTNV-1" source="QxKMZ2NqWe3CWpzE17wM-5" target="QxKMZ2NqWe3CWpzE17wM-5">
          <mxGeometry relative="1" as="geometry" />
        </mxCell>
        <mxCell id="QxKMZ2NqWe3CWpzE17wM-88" style="edgeStyle=none;curved=1;rounded=0;orthogonalLoop=1;jettySize=auto;html=1;exitX=0.5;exitY=0;exitDx=0;exitDy=0;entryX=0.513;entryY=0.967;entryDx=0;entryDy=0;entryPerimeter=0;fontSize=12;startSize=8;endSize=8;endArrow=block;endFill=0;" edge="1" parent="WIyWlLk6GJQsqaUBKTNV-1" source="QxKMZ2NqWe3CWpzE17wM-5" target="QxKMZ2NqWe3CWpzE17wM-68">
          <mxGeometry relative="1" as="geometry" />
        </mxCell>
        <mxCell id="QxKMZ2NqWe3CWpzE17wM-89" style="edgeStyle=none;curved=1;rounded=0;orthogonalLoop=1;jettySize=auto;html=1;entryX=0.5;entryY=0;entryDx=0;entryDy=0;fontSize=12;startSize=8;endSize=8;" edge="1" parent="WIyWlLk6GJQsqaUBKTNV-1" source="QxKMZ2NqWe3CWpzE17wM-4" target="QxKMZ2NqWe3CWpzE17wM-4">
          <mxGeometry relative="1" as="geometry" />
        </mxCell>
        <mxCell id="QxKMZ2NqWe3CWpzE17wM-126" value="" style="edgeStyle=orthogonalEdgeStyle;rounded=0;orthogonalLoop=1;jettySize=auto;html=1;fontSize=12;startSize=8;endSize=8;entryX=0.5;entryY=1;entryDx=0;entryDy=0;" edge="1" parent="WIyWlLk6GJQsqaUBKTNV-1" source="QxKMZ2NqWe3CWpzE17wM-108" target="QxKMZ2NqWe3CWpzE17wM-4">
          <mxGeometry relative="1" as="geometry" />
        </mxCell>
        <mxCell id="QxKMZ2NqWe3CWpzE17wM-128" value="" style="edgeStyle=orthogonalEdgeStyle;rounded=0;orthogonalLoop=1;jettySize=auto;html=1;fontSize=12;startSize=8;endSize=8;" edge="1" parent="WIyWlLk6GJQsqaUBKTNV-1" source="QxKMZ2NqWe3CWpzE17wM-108" target="QxKMZ2NqWe3CWpzE17wM-64">
          <mxGeometry relative="1" as="geometry">
            <mxPoint x="740" y="300" as="targetPoint" />
          </mxGeometry>
        </mxCell>
        <mxCell id="QxKMZ2NqWe3CWpzE17wM-129" value="" style="edgeStyle=none;curved=1;rounded=0;orthogonalLoop=1;jettySize=auto;html=1;fontSize=12;startSize=8;endSize=8;" edge="1" parent="WIyWlLk6GJQsqaUBKTNV-1" source="QxKMZ2NqWe3CWpzE17wM-108">
          <mxGeometry relative="1" as="geometry">
            <mxPoint x="420" y="250" as="targetPoint" />
          </mxGeometry>
        </mxCell>
        <mxCell id="QxKMZ2NqWe3CWpzE17wM-108" value="Record" style="whiteSpace=wrap;html=1;align=center;" vertex="1" parent="WIyWlLk6GJQsqaUBKTNV-1">
          <mxGeometry x="320" y="280" width="200" height="40" as="geometry" />
        </mxCell>
        <mxCell id="QxKMZ2NqWe3CWpzE17wM-111" value="&lt;div style=&quot;&quot;&gt;&lt;span style=&quot;background-color: initial;&quot;&gt;&amp;nbsp;+name: Name&amp;nbsp;&lt;/span&gt;&lt;/div&gt;&lt;div&gt;&lt;div style=&quot;&quot;&gt;&lt;span style=&quot;background-color: initial;&quot;&gt;&amp;nbsp;+phones: List[Phone]&amp;nbsp;&lt;/span&gt;&lt;/div&gt;&lt;div style=&quot;&quot;&gt;&lt;span style=&quot;background-color: initial;&quot;&gt;&amp;nbsp;+birthday: Birthday&lt;/span&gt;&lt;/div&gt;&lt;/div&gt;" style="whiteSpace=wrap;html=1;align=left;" vertex="1" parent="WIyWlLk6GJQsqaUBKTNV-1">
          <mxGeometry x="320" y="320" width="200" height="60" as="geometry" />
        </mxCell>
        <mxCell id="QxKMZ2NqWe3CWpzE17wM-114" style="edgeStyle=none;curved=1;rounded=0;orthogonalLoop=1;jettySize=auto;html=1;fontSize=12;startSize=8;endSize=8;endArrow=block;endFill=1;entryX=0.35;entryY=-0.018;entryDx=0;entryDy=0;entryPerimeter=0;" edge="1" parent="WIyWlLk6GJQsqaUBKTNV-1" source="QxKMZ2NqWe3CWpzE17wM-113" target="QxKMZ2NqWe3CWpzE17wM-130">
          <mxGeometry relative="1" as="geometry">
            <mxPoint x="420" y="600" as="targetPoint" />
            <Array as="points">
              <mxPoint x="420" y="510" />
            </Array>
          </mxGeometry>
        </mxCell>
        <mxCell id="QxKMZ2NqWe3CWpzE17wM-113" value="&lt;div style=&quot;text-align: left;&quot;&gt;&lt;span style=&quot;background-color: initial;&quot;&gt;&amp;nbsp;+add_phone(phone_number: str):&amp;nbsp; &amp;nbsp;void&lt;/span&gt;&lt;/div&gt;&lt;div style=&quot;text-align: left;&quot;&gt;&amp;nbsp;+remove_phone(phone_number:&amp;nbsp; &amp;nbsp;str): void&lt;br&gt;&lt;/div&gt;&lt;div style=&quot;text-align: left;&quot;&gt;&amp;nbsp;+edit_phone(old_phone_number:&amp;nbsp; &amp;nbsp;str, new_phone_number: str): void&lt;br&gt;&lt;/div&gt;&lt;div style=&quot;text-align: left;&quot;&gt;&amp;nbsp;+add_birthday(&lt;span class=&quot;hljs-built_in&quot;&gt;date&lt;/span&gt;: str): void&lt;/div&gt;&lt;div style=&quot;text-align: left;&quot;&gt;&amp;nbsp;+__str__(): str&amp;nbsp;&lt;br&gt;&lt;/div&gt;" style="whiteSpace=wrap;html=1;align=center;" vertex="1" parent="WIyWlLk6GJQsqaUBKTNV-1">
          <mxGeometry x="320" y="380" width="200" height="130" as="geometry" />
        </mxCell>
        <mxCell id="QxKMZ2NqWe3CWpzE17wM-130" value="AddressBook" style="swimlane;fontStyle=0;childLayout=stackLayout;horizontal=1;startSize=26;horizontalStack=0;resizeParent=1;resizeParentMax=0;resizeLast=0;collapsible=1;marginBottom=0;align=center;fontSize=14;" vertex="1" parent="WIyWlLk6GJQsqaUBKTNV-1">
          <mxGeometry x="430" y="600" width="160" height="56" as="geometry" />
        </mxCell>
        <mxCell id="QxKMZ2NqWe3CWpzE17wM-141" value="" style="edgeStyle=none;curved=1;rounded=0;orthogonalLoop=1;jettySize=auto;html=1;fontSize=12;startSize=8;endSize=8;endArrow=block;endFill=1;" edge="1" parent="WIyWlLk6GJQsqaUBKTNV-1" source="QxKMZ2NqWe3CWpzE17wM-134" target="QxKMZ2NqWe3CWpzE17wM-140">
          <mxGeometry relative="1" as="geometry" />
        </mxCell>
        <mxCell id="QxKMZ2NqWe3CWpzE17wM-134" value="&lt;div style=&quot;text-align: justify;&quot;&gt;&lt;span style=&quot;background-color: initial;&quot;&gt;+add_record(record:&amp;nbsp; Record): void&lt;/span&gt;&lt;/div&gt;&lt;div style=&quot;text-align: justify;&quot;&gt;&lt;span style=&quot;background-color: initial;&quot;&gt;+&lt;/span&gt;&lt;span style=&quot;background-color: initial;&quot; class=&quot;hljs-built_in&quot;&gt;find&lt;/span&gt;&lt;span style=&quot;background-color: initial;&quot;&gt;(name: str): Record&lt;/span&gt;&lt;/div&gt;&lt;div style=&quot;text-align: justify;&quot;&gt;+delete(name: str): void&lt;span style=&quot;background-color: initial;&quot;&gt;&lt;br&gt;&lt;/span&gt;&lt;/div&gt;&lt;div style=&quot;text-align: justify;&quot;&gt;+get_upcoming_birthdays(): List[Record]&lt;br&gt;&lt;/div&gt;&lt;div style=&quot;text-align: justify;&quot;&gt;+__str__(): str&lt;/div&gt;" style="whiteSpace=wrap;html=1;" vertex="1" parent="WIyWlLk6GJQsqaUBKTNV-1">
          <mxGeometry x="430" y="656" width="160" height="114" as="geometry" />
        </mxCell>
        <mxCell id="QxKMZ2NqWe3CWpzE17wM-142" style="edgeStyle=none;curved=1;rounded=0;orthogonalLoop=1;jettySize=auto;html=1;fontSize=12;startSize=8;endSize=8;endArrow=diamond;endFill=1;" edge="1" parent="WIyWlLk6GJQsqaUBKTNV-1" source="QxKMZ2NqWe3CWpzE17wM-140" target="QxKMZ2NqWe3CWpzE17wM-134">
          <mxGeometry relative="1" as="geometry" />
        </mxCell>
        <mxCell id="QxKMZ2NqWe3CWpzE17wM-140" value="&lt;div style=&quot;text-align: justify;&quot;&gt;CommandProcessor&lt;br&gt;&lt;/div&gt;" style="whiteSpace=wrap;html=1;" vertex="1" parent="WIyWlLk6GJQsqaUBKTNV-1">
          <mxGeometry x="340" y="880" width="160" height="50" as="geometry" />
        </mxCell>
        <mxCell id="QxKMZ2NqWe3CWpzE17wM-143" value="+commands: dict " style="whiteSpace=wrap;html=1;align=left;" vertex="1" parent="WIyWlLk6GJQsqaUBKTNV-1">
          <mxGeometry x="340" y="930" width="160" height="40" as="geometry" />
        </mxCell>
        <mxCell id="QxKMZ2NqWe3CWpzE17wM-144" value="&lt;div style=&quot;text-align: left;&quot;&gt;&lt;span style=&quot;background-color: initial;&quot;&gt;+register_command(name: str, handler: CommandHandler): void +&lt;/span&gt;&lt;span style=&quot;background-color: initial;&quot; class=&quot;hljs-built_in&quot;&gt;execute&lt;/span&gt;&lt;span style=&quot;background-color: initial;&quot;&gt;(command: str, args: List[str], book: AddressBook): str&lt;/span&gt;&lt;/div&gt;" style="whiteSpace=wrap;html=1;align=center;" vertex="1" parent="WIyWlLk6GJQsqaUBKTNV-1">
          <mxGeometry x="340" y="970" width="160" height="100" as="geometry" />
        </mxCell>
        <mxCell id="QxKMZ2NqWe3CWpzE17wM-147" style="edgeStyle=none;curved=1;rounded=0;orthogonalLoop=1;jettySize=auto;html=1;fontSize=12;startSize=8;endSize=8;" edge="1" parent="WIyWlLk6GJQsqaUBKTNV-1" source="QxKMZ2NqWe3CWpzE17wM-145">
          <mxGeometry relative="1" as="geometry">
            <mxPoint x="340" y="910" as="targetPoint" />
          </mxGeometry>
        </mxCell>
        <mxCell id="QxKMZ2NqWe3CWpzE17wM-145" value="CommandHandler" style="whiteSpace=wrap;html=1;" vertex="1" parent="WIyWlLk6GJQsqaUBKTNV-1">
          <mxGeometry x="100" y="880" width="120" height="60" as="geometry" />
        </mxCell>
        <mxCell id="QxKMZ2NqWe3CWpzE17wM-146" value="+handle(args: List[str], book: AddressBook): str" style="whiteSpace=wrap;html=1;align=left;" vertex="1" parent="WIyWlLk6GJQsqaUBKTNV-1">
          <mxGeometry x="100" y="940" width="120" height="50" as="geometry" />
        </mxCell>
        <mxCell id="QxKMZ2NqWe3CWpzE17wM-148" value="AddContactCommand " style="whiteSpace=wrap;html=1;align=center;direction=west;" vertex="1" parent="WIyWlLk6GJQsqaUBKTNV-1">
          <mxGeometry y="480" width="140" height="40" as="geometry" />
        </mxCell>
        <mxCell id="QxKMZ2NqWe3CWpzE17wM-152" value="ChangeContactCommand" style="whiteSpace=wrap;html=1;align=center;direction=west;" vertex="1" parent="WIyWlLk6GJQsqaUBKTNV-1">
          <mxGeometry y="530" width="140" height="40" as="geometry" />
        </mxCell>
        <mxCell id="QxKMZ2NqWe3CWpzE17wM-153" value="ShowPhoneCommand" style="whiteSpace=wrap;html=1;align=center;direction=west;" vertex="1" parent="WIyWlLk6GJQsqaUBKTNV-1">
          <mxGeometry y="585" width="140" height="40" as="geometry" />
        </mxCell>
        <mxCell id="QxKMZ2NqWe3CWpzE17wM-154" value="ShowAllCommand" style="whiteSpace=wrap;html=1;align=center;direction=east;rotation=0;" vertex="1" parent="WIyWlLk6GJQsqaUBKTNV-1">
          <mxGeometry y="640" width="140" height="40" as="geometry" />
        </mxCell>
        <mxCell id="QxKMZ2NqWe3CWpzE17wM-155" value="AddBirthdayCommand" style="whiteSpace=wrap;html=1;align=center;direction=west;" vertex="1" parent="WIyWlLk6GJQsqaUBKTNV-1">
          <mxGeometry y="693" width="140" height="40" as="geometry" />
        </mxCell>
        <mxCell id="QxKMZ2NqWe3CWpzE17wM-163" value="" style="edgeStyle=orthogonalEdgeStyle;rounded=0;orthogonalLoop=1;jettySize=auto;html=1;fontSize=12;startSize=8;endSize=8;entryX=0;entryY=0.5;entryDx=0;entryDy=0;" edge="1" parent="WIyWlLk6GJQsqaUBKTNV-1" source="QxKMZ2NqWe3CWpzE17wM-156" target="QxKMZ2NqWe3CWpzE17wM-145">
          <mxGeometry relative="1" as="geometry" />
        </mxCell>
        <mxCell id="QxKMZ2NqWe3CWpzE17wM-156" value="BirthdaysCommand" style="whiteSpace=wrap;html=1;align=center;direction=west;" vertex="1" parent="WIyWlLk6GJQsqaUBKTNV-1">
          <mxGeometry y="800" width="140" height="40" as="geometry" />
        </mxCell>
        <mxCell id="QxKMZ2NqWe3CWpzE17wM-131" value="+data: dict" style="text;spacingLeft=4;spacingRight=4;overflow=hidden;rotatable=0;points=[[0,0.5],[1,0.5]];portConstraint=eastwest;fontSize=12;whiteSpace=wrap;html=1;" vertex="1" parent="WIyWlLk6GJQsqaUBKTNV-1">
          <mxGeometry x="430" y="626" width="160" height="30" as="geometry" />
        </mxCell>
        <mxCell id="QxKMZ2NqWe3CWpzE17wM-157" value="ShowBirthdayCommand" style="whiteSpace=wrap;html=1;align=center;direction=west;" vertex="1" parent="WIyWlLk6GJQsqaUBKTNV-1">
          <mxGeometry y="750" width="140" height="40" as="geometry" />
        </mxCell>
      </root>
    </mxGraphModel>
  </diagram>
</mxfile>
